<?xml version="1.0" encoding="utf-8"?>
<!-- Generator: Adobe Illustrator 28.1.0, SVG Export Plug-In . SVG Version: 6.00 Build 0)  -->
<svg version="1.1" id="Layer_2_00000183932978854328130340000014315409482117729170_"
	 xmlns="http://www.w3.org/2000/svg" xmlns:xlink="http://www.w3.org/1999/xlink" x="0px" y="0px" viewBox="0 0 258.4 81.9"
	 style="enable-background:new 0 0 258.4 81.9;" xml:space="preserve">
<style type="text/css">
	.st0{fill:#101820;}
	.st1{fill:#007934;}
	.st2{fill:#FA7598;}
	.st3{fill:#FFA600;}
</style>
<g id="Layer_1-2">
	<g id="Group_10995">
		<g id="Group_10993">
			<rect id="Rectangle_4187" x="90.3" class="st0" width="6.4" height="32.1"/>
			<path id="Path_3" class="st0" d="M126.7,19.4v12.8h-6.5V19.8c0-3.8-1.9-5.9-5.3-5.9c-1.8,0-3.8,1-5.4,3v15.2H103V8.6h6.5v1.8
				c1.9-1.6,4.3-2.4,6.8-2.4C122.6,8,126.7,12.5,126.7,19.4"/>
			<path id="Path_4" class="st0" d="M149.4,31c-1.8,0.7-3.6,1-5.5,1c-6.1,0-9.6-3.8-9.6-9.6v-8.5h-4.9V8.7h4.9V0.8h6.3v7.9h8.4V14
				h-8.4v8.5c0,2.7,1.7,3.9,4,3.9c1.4,0,2.7-0.4,3.9-0.9L149.4,31L149.4,31z"/>
			<path id="Path_5" class="st0" d="M175,21.9h-16.8c0.5,2.6,2.2,4.7,5.8,4.7c1.7,0,2.8-0.3,3.7-1.3h7c-1.5,4.3-5.6,6.8-10.7,6.8
				c-7.4,0-12.2-5.2-12.2-12S156.5,8,163.5,8C171.4,8,176.2,14,175,21.9 M158.3,17.7h10.4c-0.3-2.9-2.2-4.3-5.1-4.3
				C160.5,13.4,158.9,15.3,158.3,17.7"/>
			<path id="Path_6" class="st0" d="M202,8.6v22.9c0,7.1-4.9,11.4-11.6,11.4s-11.4-4.1-11.9-9.8h6.4c0.3,2.4,2.3,4.1,5.5,4.1
				c3.1,0,5.4-2,5.4-5.7v-2.9c-2,1.2-4.2,1.9-6.5,1.8c-6.3,0-11.4-5.1-11.4-11c0-6.8,5.1-11.4,11.4-11.4c2.3,0,4.6,0.6,6.5,1.8V8.6
				H202z M195.8,22.2v-5.9c-1.2-1.9-3.4-2.9-5.6-2.9c-3.6,0-6.1,2.4-6.1,6c0,2.7,2.5,5.6,6.1,5.6C192.4,25.1,194.6,24,195.8,22.2"/>
			<path id="Path_7" class="st0" d="M223.2,8v6.2c-3.7,0.2-6.4,1.3-8.4,3.6v14.4h-6.5V8.6h6.5v2.5C216.9,9.1,219.6,8,223.2,8"/>
			<path id="Path_8" class="st0" d="M249.9,8.6v23h-6.3v-1.3c-2,1.2-4.3,1.9-6.6,1.9c-6.4,0-11.4-5.4-11.4-12S230.7,8,237,8
				c2.3,0,4.6,0.6,6.6,1.9V8.6H249.9z M243.6,23.7v-7.3c-1.5-2.1-3.6-2.7-5.6-2.7c-3.6,0-6.1,2.9-6.1,6.4s2.5,6.3,6.1,6.3
				C240.1,26.4,242.1,25.8,243.6,23.7"/>
			<path id="Path_9" class="st0" d="M123.7,71.2h-6.4v-18l-8.4,13.2H105v-0.1L96.6,53l0.1,18.1h-6.4V39h4.5L107,58.5L119.2,39h4.5
				V71.2L123.7,71.2z"/>
			<path id="Path_10" class="st0" d="M153.3,47.7v22.9H147v-1.3c-2,1.2-4.2,1.9-6.6,1.9c-6.3,0-11.4-5.4-11.4-12s5.1-12.1,11.4-12.1
				c2.3,0,4.6,0.6,6.6,1.9v-1.3H153.3L153.3,47.7z M147,62.8v-7.3c-1.5-2.1-3.6-2.7-5.6-2.7c-3.6,0-6.1,2.9-6.1,6.3s2.5,6.3,6.1,6.3
				C143.5,65.4,145.5,64.8,147,62.8"/>
			<path id="Path_11" class="st0" d="M182.7,47.7v22.9c0,7.1-4.9,11.4-11.6,11.4s-11.4-4.1-11.9-9.8h6.3c0.3,2.4,2.3,4.1,5.5,4.1
				c3.1,0,5.4-2,5.4-5.7v-2.9c-2,1.2-4.2,1.8-6.5,1.8c-6.3,0-11.4-5.1-11.4-11c0-6.8,5.1-11.4,11.4-11.4c2.3,0,4.6,0.6,6.5,1.8v-1.2
				L182.7,47.7L182.7,47.7z M176.4,61.2v-5.9c-1.2-1.9-3.4-2.9-5.6-2.9c-3.6,0-6.1,2.4-6.1,6c0,2.7,2.5,5.6,6.1,5.6
				C173.1,64.1,175.2,63.1,176.4,61.2"/>
			<path id="Path_12" class="st0" d="M212.6,58.4v12.8h-6.4V58.8c0-3.8-1.9-5.9-5.3-5.9c-1.8,0-3.7,1-5.4,3v15.2H189V47.7h6.4v1.8
				c1.9-1.6,4.3-2.4,6.8-2.4C208.5,47.1,212.6,51.5,212.6,58.4"/>
			<path id="Path_13" class="st0" d="M241.5,47.7v22.9h-6.3v-1.3c-2,1.2-4.2,1.9-6.6,1.9c-6.3,0-11.4-5.4-11.4-12
				s5.1-12.1,11.4-12.1c2.3,0,4.6,0.6,6.6,1.9v-1.3H241.5L241.5,47.7z M235.2,62.8v-7.3c-1.5-2.1-3.6-2.7-5.6-2.7
				c-3.6,0-6.1,2.9-6.1,6.3s2.5,6.3,6.1,6.3C231.7,65.4,233.7,64.8,235.2,62.8"/>
		</g>
		<g id="Group_10994">
			<path id="Path_14" class="st1" d="M26,71.2H0V24.6c14.4,0,26,11.7,26,26V71.2L26,71.2z"/>
			<path id="Path_15" class="st2" d="M38.2,0H0c0,10.5,8.5,19.1,19.1,19.1S38.2,10.5,38.2,0L38.2,0"/>
			<path id="Path_16" class="st3" d="M71.2,71.1v-58c-15.2,0-27.5,13-27.5,29S56,71.1,71.2,71.1"/>
			<path id="Path_17" class="st0" d="M37.1,40.4h-6.4C30.8,18.1,48.9,0,71.2,0v6.4C52.4,6.4,37.2,21.6,37.1,40.4"/>
		</g>
	</g>
	<g>
		<path class="st0" d="M253.3,2.7h-1.5v3.7h-0.7V2.7h-1.5V2.1h3.8L253.3,2.7L253.3,2.7z"/>
		<path class="st0" d="M258.4,6.4h-0.7V3.6l-1.3,2.1H256l-1.3-2.1v2.9H254V2.1h0.5l1.7,2.8l1.7-2.8h0.5L258.4,6.4L258.4,6.4z"/>
	</g>
</g>
</svg>
